<?xml version="1.0" encoding="UTF-8" standalone="no"?>
<!-- Created with Inkscape (http://www.inkscape.org/) -->
<svg xmlns:rdf="http://www.w3.org/1999/02/22-rdf-syntax-ns#" xmlns="http://www.w3.org/2000/svg" xmlns:cc="http://web.resource.org/cc/" xmlns:dc="http://purl.org/dc/elements/1.1/" xmlns:svg="http://www.w3.org/2000/svg" xmlns:inkscape="http://www.inkscape.org/namespaces/inkscape" xmlns:sodipodi="http://sodipodi.sourceforge.net/DTD/sodipodi-0.dtd" xmlns:ns1="http://sozi.baierouge.fr" xmlns:xlink="http://www.w3.org/1999/xlink" id="svg2383" viewBox="0 0 504 504" version="1.0" inkscape:version="0.91 r13725">
  <g id="layer1" transform="translate(-554.82 -264.5)">
    <path id="path2449" style="fill:#000000" d="m86.083 448.55c-4.536-2.48-5.032-5.43-4.697-27.94l0.309-20.74 2.805-2.42c2.537-2.18 3.711-2.41 12.25-2.41h9.44l0.01-17.75c0-15.83 0.21-18.07 1.93-20.75 1.07-1.65 10.5-12 20.96-23l19.04-20 0.02-71 0.03-71-23.54-17.9c-12.94-9.84-23.96-18.7-24.49-19.68-0.555-1.04-0.955-16.48-0.955-36.902 0-38.412 0.163-39.598 5.765-41.917 2.04-0.846 11.59-1.1 33.52-0.891 37.97 0.362 35.06-1.056 35.55 17.317l0.33 12.475h16.92 16.91v-10.532c0-12.228 1.34-16.534 5.68-18.331 2.14-0.889 12.74-1.133 40.09-0.922 45.53 0.35 41.57-1.279 42.07 17.31l0.33 12.475h16.92 16.91v-11.049c0-12.413 1.14-15.936 5.77-17.852 2.04-0.846 11.59-1.1 33.52-0.891 30.39 0.29 30.68 0.313 32.94 2.569 2.27 2.275 2.27 2.309 2.56 38.871 0.24 30.24 0.04 36.96-1.13 38.72-0.78 1.17-11.81 10.01-24.53 19.63l-23.11 17.5v71l-0.01 71 20.11 21.48c11.06 11.82 20.51 22.53 21 23.82 0.49 1.28 0.88 9.91 0.88 19.17v16.84l9.98 0.35c15.12 0.52 14.52-0.61 14.52 27.34 0 22.03-0.04 22.49-2.27 24.72l-2.28 2.28-164.72 0.22c-140.94 0.18-165.1 0.01-167.34-1.21h0.003z" transform="translate(554.82 264.5)"/>
    <path id="path2394" style="fill:#ffffff" d="m387.19 96.542v-24.5h-19.41-19.42l-0.33 12.475c-0.49 18.273 2.02 16.953-33.04 17.323-20.06 0.21-28.99-0.05-31.03-0.89-4.63-1.922-5.77-5.441-5.77-17.858v-11.05h-26-26v11.945c0 11.182-0.15 12.123-2.41 14.75l-2.41 2.803-28.27 0.3c-20.14 0.21-29.1-0.05-31.14-0.89-4.63-1.922-5.77-5.441-5.77-17.858v-11.05h-19.5-19.5v24.5 24.498h135 135v-24.498z" transform="translate(554.82 264.5)"/>
    <path id="path2392" style="fill:#ffffff" d="m357.47 148.79l12.14-9.25-58.71-0.26c-32.29-0.14-85.1-0.14-117.35 0l-58.64 0.26 11.89 9.2 11.89 9.2 93.32 0.05 93.32 0.05 12.14-9.25z" transform="translate(554.82 264.5)"/>
    <path id="path2390" style="fill:#ffffff" d="m338.19 242.04v-66h-86-86v66 66h86 86v-66z" transform="translate(554.82 264.5)"/>
    <path id="path2388" style="fill:#ffffff" d="m366.52 350.73c-1.01-1.27-6.55-7.35-12.33-13.5l-10.5-11.19h-91.57-91.58l-12.75 13.5-12.76 13.5h116.66 116.65l-1.82-2.31z" transform="translate(554.82 264.5)"/>
    <path id="path2386" style="fill:#ffffff" d="m380.19 383.04v-12h-128-128v12 12h128 128v-12z" transform="translate(554.82 264.5)"/>
    <path id="path2384" style="fill:#ffffff" d="m405.19 422.54v-9.5h-153-153l0.005 9.5v9.5h153 152.99v-9.5z" transform="translate(554.82 264.5)"/>
  </g>
  <metadata>
    <rdf:RDF>
      <cc:Work>
        <dc:format>image/svg+xml</dc:format>
        <dc:type rdf:resource="http://purl.org/dc/dcmitype/StillImage"/>
        <cc:license rdf:resource="http://creativecommons.org/licenses/publicdomain/"/>
        <dc:publisher>
          <cc:Agent rdf:about="http://openclipart.org/">
            <dc:title>Openclipart</dc:title>
          </cc:Agent>
        </dc:publisher>
        <dc:title>Chess tile - Rook 3</dc:title>
        <dc:date>2006-12-26T00:00:00</dc:date>
        <dc:description/>
        <dc:source>https://openclipart.org/detail/18655/-by--18655</dc:source>
        <dc:creator>
          <cc:Agent>
            <dc:title>portablejim</dc:title>
          </cc:Agent>
        </dc:creator>
      </cc:Work>
      <cc:License rdf:about="http://creativecommons.org/licenses/publicdomain/">
        <cc:permits rdf:resource="http://creativecommons.org/ns#Reproduction"/>
        <cc:permits rdf:resource="http://creativecommons.org/ns#Distribution"/>
        <cc:permits rdf:resource="http://creativecommons.org/ns#DerivativeWorks"/>
      </cc:License>
    </rdf:RDF>
  </metadata>
</svg>