<?xml version="1.0" encoding="UTF-8" standalone="no"?>
<!-- Created with Inkscape (http://www.inkscape.org/) -->
<svg xmlns:rdf="http://www.w3.org/1999/02/22-rdf-syntax-ns#" xmlns="http://www.w3.org/2000/svg" xmlns:cc="http://web.resource.org/cc/" xmlns:dc="http://purl.org/dc/elements/1.1/" xmlns:svg="http://www.w3.org/2000/svg" xmlns:inkscape="http://www.inkscape.org/namespaces/inkscape" xmlns:sodipodi="http://sodipodi.sourceforge.net/DTD/sodipodi-0.dtd" xmlns:ns1="http://sozi.baierouge.fr" xmlns:xlink="http://www.w3.org/1999/xlink" id="svg2" viewBox="0 0 504 504" version="1.0" inkscape:version="0.91 r13725">
  <g id="layer1" transform="translate(267.35 -46.409)">
    <g id="g2582" transform="translate(-.0000016318 560)">
      <path id="path2439" style="fill:#000000" d="m203.57-93.526c-35.66-2.272-64.83-9.044-89.82-20.854-12.59-5.95-11.64-2.8-8.44-28.03l2.23-17.5-2.31-25.5c-1.51-16.67-2.74-25.85-3.55-26.5-0.69-0.55-3.894-5.73-7.13-11.5-8.558-15.28-18.675-30.53-31.174-47-14.762-19.45-18.913-25.74-23.558-35.65-9.296-19.84-9.052-38.34 0.768-58.23 3.567-7.23 6.268-11.04 11.772-16.59 24.181-24.42 60.962-26.96 100.76-6.97 28.38 14.25 48.26 30.62 69.76 57.44 1.5 1.87 0.66-1.67-3.33-14-7.64-23.63-9-30.82-8.96-47.5 0.03-11.93 0.37-14.97 2.31-20.5 5.14-14.74 14.7-26.41 25.87-31.61l6.21-2.89 0.01-19.75 0.01-19.75h-16.5-16.5v-7.5-7.5h16.5 16.5v-11-11h7.5 7.5v11 11h16 16v7.5 7.5h-16-16v19.88 19.88l5.75 2.81c10.81 5.27 20.34 17.08 25.35 31.43 1.94 5.53 2.28 8.57 2.31 20.5 0.04 16.68-1.32 23.87-8.96 47.5-3.99 12.33-4.83 15.87-3.33 14 21.5-26.82 41.38-43.19 69.76-57.44 39.8-19.99 76.58-17.45 100.76 6.97 5.51 5.55 8.21 9.36 11.77 16.59 9.82 19.89 10.07 38.39 0.77 58.23-4.64 9.91-8.79 16.2-23.56 35.65-12.49 16.47-22.61 31.72-31.17 47-3.24 5.77-6.44 10.95-7.13 11.5-0.81 0.65-2.04 9.83-3.55 26.5l-2.31 25.5 2.23 17.5c3.19 25.17 4 22.19-7.44 27.57-14.05 6.6-21.08 9.14-35.89 12.96-16.36 4.221-35.92 7.095-57.36 8.431-18.98 1.183-75.38 1.137-94.43-0.077z" transform="translate(-267.35 46.409)"/>
      <path id="path2578" style="fill:#ffffff" d="m253-270.11c0-0.93 6.53-21.12 14.51-44.85 15.73-46.78 18.14-55.73 19.11-70.95 1.23-19.39-3.43-34.47-13.84-44.82-7.33-7.3-11.54-9.15-20.78-9.15s-13.45 1.85-20.78 9.15c-10.41 10.35-15.07 25.43-13.84 44.82 0.97 15.22 3.38 24.17 19.11 70.95 7.98 23.73 14.51 43.92 14.51 44.85s0.45 1.7 1 1.7 1-0.77 1-1.7z" transform="translate(-267.35 46.409)"/>
      <path id="path2572" style="fill:#ffffff" d="m130.18-210.93c21.66-6.17 47.89-11.14 74.82-14.16 21.68-2.43 72.32-2.43 94 0 26.93 3.02 53.16 7.99 74.82 14.16 6.77 1.94 13.15 3.52 14.17 3.52 3.56 0 7.96-5.18 15.14-17.8 10.21-17.96 19.79-32.46 32.49-49.2 14.36-18.92 18.97-25.81 22.58-33.79 15.23-33.58-0.67-71.56-34.7-82.93-7.16-2.39-9.46-2.67-22-2.65-11.86 0.01-15.46 0.41-23.57 2.59-26.07 7.01-51.67 22.59-74.4 45.29-13.23 13.2-22.79 25.93-30.44 40.52-5.52 10.53-10.12 26.64-14.27 49.92l-2.32 13.05h-4.5-4.5l-2.32-13.05c-4.15-23.28-8.75-39.39-14.27-49.92-7.65-14.59-17.21-27.32-30.44-40.52-22.73-22.7-48.33-38.28-74.4-45.29-8.11-2.18-11.71-2.58-23.57-2.59-12.536-0.02-14.836 0.26-22 2.65-34.035 11.37-49.929 49.35-34.702 82.93 3.615 7.98 8.222 14.87 22.578 33.79 12.707 16.74 22.28 31.24 32.494 49.2 7.18 12.62 11.58 17.8 15.14 17.8 1.02 0 7.4-1.58 14.17-3.52z" transform="translate(-267.35 46.409)"/>
      <path id="path2570" style="fill:#ffffff" d="m132.92-156.34c23.28-8.57 50.55-15.15 77.58-18.73 9.7-1.29 20.23-1.72 41.5-1.72s31.8 0.43 41.5 1.72c27.17 3.6 54.29 10.16 77.91 18.85 12.11 4.46 14.83 4.42 17.46-0.27 1.98-3.53 0.76-7.57-2.97-9.84-4.62-2.8-32.41-11.78-48.3-15.59-31.52-7.57-52.14-9.97-85.6-9.97-39.7 0-71.45 4.73-107.78 16.05-24.88 7.75-30.22 10.62-30.22 16.2 0 2.69 4.13 7.23 6.58 7.23 0.92 0 6.47-1.77 12.34-3.93z" transform="translate(-267.35 46.409)"/>
      <path id="path2568" style="fill:#ffffff" d="m126.11-116.3c27.66-12.52 66.42-22.2 100.19-25.04 50.24-4.21 103.7 4.48 150.14 24.43l8.4 3.61 5.08-2.57c11-5.57 4.73-10.8-26.42-22.05-33.5-12.09-75.76-19.47-111.5-19.47s-78 7.38-111.5 19.47c-30.88 11.15-37.33 16.44-26.75 21.94 2.61 1.36 5.03 2.5 5.36 2.52 0.34 0.03 3.49-1.25 7-2.84z" transform="translate(-267.35 46.409)"/>
      <path id="path2580" style="fill:#000000" d="m243.69-318.16c-8.74-25.99-12.98-42-15.31-57.75-3.47-23.49 1.21-41.57 12.74-49.2 3.57-2.36 5.28-2.8 10.88-2.8s7.31 0.44 10.88 2.8c15.03 9.94 17.72 33.94 8.1 72.2-3.34 13.28-17.94 57.5-18.98 57.5-0.36 0-4.1-10.24-8.31-22.75z" transform="translate(-267.35 46.409)"/>
      <path id="path2576" style="fill:#000000" d="m385-226.54c-1.38-0.56-9.25-2.76-17.5-4.91-28.7-7.45-56.79-11.58-86.03-12.64l-17.04-0.62 0.72-7.5c4.02-42.1 30.5-81.02 75.75-111.36 39.58-26.53 74.13-29.94 96.71-9.53 12.39 11.2 18 31.7 13.93 50.92-2.93 13.84-8.75 23.83-31.75 54.55-6.29 8.41-15.21 21.35-19.81 28.75-8.81 14.16-9.34 14.6-14.98 12.34z" transform="translate(-267.35 46.409)"/>
      <path id="path2574" style="fill:#000000" d="m104.07-238.8c-4.633-7.45-13.572-20.42-19.865-28.83-17.811-23.79-21.958-29.98-26.288-39.22-9.082-19.38-9.166-37.78-0.252-54.74 7.941-15.12 25.3-24.82 44.385-24.82 22.75 0 52.32 13.81 81.03 37.83 33.26 27.84 52.38 60.92 55.78 96.52l0.73 7.65-10.04 0.01c-28.22 0.03-68.45 5.95-99.05 14.58-7.15 2.01-14.13 3.87-15.5 4.11-2.28 0.41-3.28-0.78-10.93-13.09z" transform="translate(-267.35 46.409)"/>
    </g>
  </g>
  <metadata>
    <rdf:RDF>
      <cc:Work>
        <dc:format>image/svg+xml</dc:format>
        <dc:type rdf:resource="http://purl.org/dc/dcmitype/StillImage"/>
        <cc:license rdf:resource="http://creativecommons.org/licenses/publicdomain/"/>
        <dc:publisher>
          <cc:Agent rdf:about="http://openclipart.org/">
            <dc:title>Openclipart</dc:title>
          </cc:Agent>
        </dc:publisher>
        <dc:title>Chess tile - King 1</dc:title>
        <dc:date>2006-12-26T00:00:00</dc:date>
        <dc:description/>
        <dc:source>https://openclipart.org/detail/18670/-by--18670</dc:source>
        <dc:creator>
          <cc:Agent>
            <dc:title>portablejim</dc:title>
          </cc:Agent>
        </dc:creator>
      </cc:Work>
      <cc:License rdf:about="http://creativecommons.org/licenses/publicdomain/">
        <cc:permits rdf:resource="http://creativecommons.org/ns#Reproduction"/>
        <cc:permits rdf:resource="http://creativecommons.org/ns#Distribution"/>
        <cc:permits rdf:resource="http://creativecommons.org/ns#DerivativeWorks"/>
      </cc:License>
    </rdf:RDF>
  </metadata>
</svg>