<?xml version="1.0" encoding="UTF-8" standalone="no"?>
<!-- Created with Inkscape (http://www.inkscape.org/) -->
<svg xmlns:rdf="http://www.w3.org/1999/02/22-rdf-syntax-ns#" xmlns="http://www.w3.org/2000/svg" xmlns:cc="http://web.resource.org/cc/" xmlns:dc="http://purl.org/dc/elements/1.1/" xmlns:svg="http://www.w3.org/2000/svg" xmlns:inkscape="http://www.inkscape.org/namespaces/inkscape" xmlns:sodipodi="http://sodipodi.sourceforge.net/DTD/sodipodi-0.dtd" xmlns:ns1="http://sozi.baierouge.fr" xmlns:xlink="http://www.w3.org/1999/xlink" id="svg2482" viewBox="0 0 504 504" version="1.0" inkscape:version="0.91 r13725">
  <g id="layer1" transform="translate(-458.89 -202.89)">
    <path id="path2505" style="fill:#000000" d="m559.76 645.59c-2.22-13.35-1.75-39.94 0.95-53.48 8.23-41.36 32.37-77.37 66.68-99.5 10.97-7.08 21.38-12.03 36.5-17.38 0.93-0.33-1.53-2.1-6.5-4.68-11.96-6.21-22.72-17.3-28.86-29.73-6.01-12.17-8-21.41-7.32-33.98 0.97-18.05 7.66-32.94 20.68-46.02 11.64-11.7 30.03-19.98 44.36-19.98h5.03l-5.44-2.7c-7.1-3.51-15.86-12.34-19.34-19.46-7.98-16.38-4.91-35.67 7.68-48.26 19.31-19.31 54.11-19.31 73.42 0 12.59 12.59 15.66 31.88 7.68 48.26-3.47 7.12-12.24 15.95-19.33 19.46l-5.45 2.7h5.04c14.33 0 32.71 8.28 44.35 19.98 13.02 13.08 19.71 27.97 20.69 46.02 0.68 12.57-1.31 21.81-7.32 33.98-6.14 12.43-16.91 23.52-28.87 29.73-4.97 2.58-7.43 4.35-6.5 4.68 15.13 5.35 25.53 10.3 36.5 17.38 34.32 22.13 58.45 58.14 66.68 99.5 2.7 13.54 3.17 40.13 0.95 53.48l-1.37 8.25h-149.76-149.75l-1.38-8.25z"/>
  </g>
  <metadata>
    <rdf:RDF>
      <cc:Work>
        <dc:format>image/svg+xml</dc:format>
        <dc:type rdf:resource="http://purl.org/dc/dcmitype/StillImage"/>
        <cc:license rdf:resource="http://creativecommons.org/licenses/publicdomain/"/>
        <dc:publisher>
          <cc:Agent rdf:about="http://openclipart.org/">
            <dc:title>Openclipart</dc:title>
          </cc:Agent>
        </dc:publisher>
        <dc:title>Chess tile - Pawn 1</dc:title>
        <dc:date>2006-12-26T00:00:00</dc:date>
        <dc:description/>
        <dc:source>https://openclipart.org/detail/18651/-by--18651</dc:source>
        <dc:creator>
          <cc:Agent>
            <dc:title>portablejim</dc:title>
          </cc:Agent>
        </dc:creator>
      </cc:Work>
      <cc:License rdf:about="http://creativecommons.org/licenses/publicdomain/">
        <cc:permits rdf:resource="http://creativecommons.org/ns#Reproduction"/>
        <cc:permits rdf:resource="http://creativecommons.org/ns#Distribution"/>
        <cc:permits rdf:resource="http://creativecommons.org/ns#DerivativeWorks"/>
      </cc:License>
    </rdf:RDF>
  </metadata>
</svg>