<?xml version="1.0" encoding="UTF-8" standalone="no"?>
<!-- Created with Inkscape (http://www.inkscape.org/) -->
<svg xmlns:rdf="http://www.w3.org/1999/02/22-rdf-syntax-ns#" xmlns="http://www.w3.org/2000/svg" xmlns:cc="http://web.resource.org/cc/" xmlns:dc="http://purl.org/dc/elements/1.1/" xmlns:svg="http://www.w3.org/2000/svg" xmlns:inkscape="http://www.inkscape.org/namespaces/inkscape" xmlns:sodipodi="http://sodipodi.sourceforge.net/DTD/sodipodi-0.dtd" xmlns:ns1="http://sozi.baierouge.fr" xmlns:xlink="http://www.w3.org/1999/xlink" id="svg2535" viewBox="0 0 504 504" version="1.0" inkscape:version="0.91 r13725">
  <g id="layer1" transform="translate(-387.21 -272.99)">
    <path id="path2558" style="fill:#000000" d="m99.308 458.99c-6.102-2.46-8.646-14.33-8.673-40.49-0.022-21.65 1.499-31.06 8.339-51.61 12.976-38.99 41.396-72.77 76.586-91.04l10.06-5.22-5.06-4.12c-10.79-8.79-20.39-23.95-24.75-39.06-1.86-6.47-2.28-10.28-2.23-20.45 0.06-10.86 0.43-13.61 2.84-21 7.54-23.07 20.75-38.57 41.58-48.82l9.5-4.68-4.23-6.3c-8.46-12.63-11.1-27.796-7.28-41.935 4.24-15.733 12.73-26.072 27.3-33.251 18.81-9.274 38.61-9.274 57.42 0 14.57 7.179 23.06 17.518 27.3 33.251 3.82 14.139 1.18 29.305-7.28 41.935l-4.23 6.3 9.5 4.68c20.83 10.25 34.04 25.75 41.58 48.82 2.41 7.39 2.78 10.14 2.84 21 0.05 10.17-0.37 13.98-2.23 20.45-4.36 15.11-13.96 30.27-24.75 39.06l-5.06 4.12 10.06 5.22c35.19 18.27 63.61 52.05 76.59 91.04 6.84 20.55 8.36 29.96 8.33 51.61-0.02 26.65-2.56 38.11-8.98 40.55-3.23 1.22-302.02 1.17-305.07-0.06h-0.002z" transform="translate(387.21 272.99)"/>
    <path id="path2384" style="fill:#ffffff" d="m394.73 439.25c0.42-1.51 0.74-11.07 0.7-21.25-0.07-20.62-1.75-31.25-7.55-47.69-14.2-40.25-47.26-73.64-86.88-87.76-9.96-3.54-11.78-4.85-12.57-9.05-0.97-5.21 1.26-7.7 11.27-12.52 31.24-15.08 42.62-53.88 24.81-84.6-4.83-8.33-16.11-18.59-25.64-23.31-7.96-3.94-12.1-5-25.97-6.61-5.14-0.6-8.53-3.15-9.54-7.17-1.05-4.17 1.51-7.45 8.6-11.03 8.05-4.05 13.36-9.18 16.84-16.26 2.36-4.8 2.7-6.7 2.7-14.998 0-8.364-0.33-10.177-2.78-15.161-3.45-7.02-8.99-12.123-17.6-16.201-6.32-2.997-7.18-3.138-19.12-3.138s-12.8 0.141-19.12 3.138c-8.61 4.078-14.15 9.181-17.6 16.201-2.45 4.984-2.78 6.797-2.78 15.161 0 8.298 0.34 10.198 2.7 14.998 3.48 7.08 8.79 12.21 16.84 16.26 7.09 3.58 9.65 6.86 8.6 11.03-1.01 4.02-4.4 6.57-9.54 7.17-13.87 1.61-18.01 2.67-25.97 6.61-9.53 4.72-20.81 14.98-25.64 23.31-7.28 12.55-9.98 27.84-7.52 42.47 2.95 17.47 15.72 34.12 32.33 42.13 10.01 4.82 12.24 7.31 11.27 12.52-0.79 4.2-2.61 5.51-12.57 9.05-39.62 14.12-72.68 47.51-86.88 87.76-5.8 16.44-7.48 27.07-7.55 47.69-0.04 10.18 0.28 19.74 0.7 21.25l0.77 2.75h141.96 141.96l0.77-2.75z" transform="translate(387.21 272.99)"/>
  </g>
  <metadata>
    <rdf:RDF>
      <cc:Work>
        <dc:format>image/svg+xml</dc:format>
        <dc:type rdf:resource="http://purl.org/dc/dcmitype/StillImage"/>
        <cc:license rdf:resource="http://creativecommons.org/licenses/publicdomain/"/>
        <dc:publisher>
          <cc:Agent rdf:about="http://openclipart.org/">
            <dc:title>Openclipart</dc:title>
          </cc:Agent>
        </dc:publisher>
        <dc:title>Chess tile - Pawn 3</dc:title>
        <dc:date>2006-12-26T00:00:00</dc:date>
        <dc:description/>
        <dc:source>https://openclipart.org/detail/18649/-by--18649</dc:source>
        <dc:creator>
          <cc:Agent>
            <dc:title>portablejim</dc:title>
          </cc:Agent>
        </dc:creator>
      </cc:Work>
      <cc:License rdf:about="http://creativecommons.org/licenses/publicdomain/">
        <cc:permits rdf:resource="http://creativecommons.org/ns#Reproduction"/>
        <cc:permits rdf:resource="http://creativecommons.org/ns#Distribution"/>
        <cc:permits rdf:resource="http://creativecommons.org/ns#DerivativeWorks"/>
      </cc:License>
    </rdf:RDF>
  </metadata>
</svg>