<?xml version="1.0" encoding="UTF-8" standalone="no"?>
<!-- Created with Inkscape (http://www.inkscape.org/) -->
<svg xmlns:rdf="http://www.w3.org/1999/02/22-rdf-syntax-ns#" xmlns="http://www.w3.org/2000/svg" xmlns:cc="http://web.resource.org/cc/" xmlns:dc="http://purl.org/dc/elements/1.1/" xmlns:svg="http://www.w3.org/2000/svg" xmlns:inkscape="http://www.inkscape.org/namespaces/inkscape" xmlns:sodipodi="http://sodipodi.sourceforge.net/DTD/sodipodi-0.dtd" xmlns:ns1="http://sozi.baierouge.fr" xmlns:xlink="http://www.w3.org/1999/xlink" id="svg2" viewBox="0 0 504 504" version="1.0" inkscape:version="0.91 r13725">
  <g id="layer1" transform="translate(-319.92 -446.86)">
    <path id="path2396" style="fill:#000000" d="m186 482.9c-29.18-1.53-57.03-8.5-78.35-19.6-10.411-5.43-13.65-8.39-13.65-12.48 0-1.39 4.271-12.32 9.49-24.31l9.49-21.79-8.92-20.48-8.923-20.49-18.239-22.33c-10.031-12.28-18.697-22.92-19.257-23.65s-5.775-39.35-11.588-85.81l-10.569-84.48-6.613-2.22c-8.08-2.72-13.149-6.46-17.016-12.54-6.8265-10.75-7.4802-22.35-1.8982-33.687 5.7162-11.611 16.183-17.819 30.043-17.819s24.327 6.208 30.043 17.819c6.625 13.457 4.668 25.647-6.433 40.077-0.577 0.75 9.249 21.99 27.992 60.52l28.878 59.37 4.2-72.95c2.3-40.12 4.22-74.41 4.25-76.18 0.06-2.75-0.49-3.52-3.68-5.17-6.73-3.47-12.03-8.905-15.46-15.875-8.4-17.07-1.02-36.417 17.21-45.097 11.28-5.371 25.13-2.933 35.71 6.286 2.49 2.172 5.55 6.39 7.5 10.353 2.84 5.77 3.29 7.721 3.29 14.229s-0.45 8.459-3.29 14.229c-1.94 3.93-4.96 8.112-7.33 10.143l-4.04 3.452 24.83 72.07c13.66 39.64 25.08 72.08 25.37 72.09 0.3 0.01 6.86-36.32 14.57-80.72l14.02-80.737-4.29-2.843c-9.57-6.336-14.82-16.151-14.83-27.705-0.02-13.445 7.41-24.618 20.49-30.847 7.79-3.707 18.21-3.707 26 0 8.15 3.881 13.45 9.005 17.21 16.639 2.84 5.772 3.29 7.717 3.28 14.208-0.01 11.554-5.26 21.369-14.83 27.705l-4.29 2.843 14.02 80.737c7.71 44.4 14.27 80.73 14.57 80.72 0.29-0.01 11.71-32.45 25.37-72.09l24.83-72.07-4.04-3.452c-2.37-2.031-5.39-6.213-7.33-10.143-8.4-17.07-1.02-36.417 17.21-45.097 7.79-3.707 18.21-3.707 26 0 8.15 3.881 13.45 9.005 17.21 16.639 2.84 5.77 3.29 7.721 3.29 14.229s-0.45 8.459-3.29 14.229c-3.43 6.97-8.73 12.405-15.46 15.875-3.19 1.65-3.74 2.42-3.68 5.17 0.03 1.77 1.95 36.06 4.25 76.18l4.2 72.95 28.88-59.37c18.74-38.53 28.57-59.77 27.99-60.52-11.1-14.43-13.06-26.62-6.43-40.077 5.71-11.611 16.18-17.819 30.04-17.819s24.33 6.208 30.04 17.819c5.59 11.337 4.93 22.937-1.89 33.687-3.87 6.08-8.94 9.82-17.02 12.54l-6.61 2.22-10.57 84.48c-5.82 46.46-11.03 85.08-11.59 85.81s-9.23 11.37-19.26 23.65l-18.24 22.33-8.92 20.49-8.92 20.48 9.49 21.79c5.22 11.99 9.49 22.92 9.49 24.31 0 4.09-3.24 7.05-13.65 12.48-16.52 8.6-36.61 14.69-59.29 17.97-8.52 1.23-23.61 1.57-78.06 1.72-37.12 0.11-69.97 0.07-73-0.09z" transform="translate(319.92 446.86)"/>
    <path id="path2411" style="fill:#ffffff" d="m260.08 68.322c5.18-3.492 7.92-8.238 7.92-13.726 0-12.206-14.27-20.339-24.08-13.726-5.18 3.493-7.92 8.239-7.92 13.726 0 12.207 14.27 20.339 24.08 13.726z" transform="translate(319.92 446.86)"/>
    <path id="path2409" style="fill:#ffffff" d="m372.08 88.322c5.18-3.492 7.92-8.238 7.92-13.726 0-5.487-2.74-10.233-7.92-13.726-9.81-6.613-24.08 1.52-24.08 13.726 0 12.207 14.27 20.339 24.08 13.726z" transform="translate(319.92 446.86)"/>
    <path id="path2407" style="fill:#ffffff" d="m148.08 88.322c10.64-7.17 10.64-20.282 0-27.452-9.81-6.613-24.08 1.52-24.08 13.726 0 12.207 14.27 20.339 24.08 13.726z" transform="translate(319.92 446.86)"/>
    <path id="path2405" style="fill:#ffffff" d="m471.98 127.84c5.18-2.6 8.02-7.47 8.02-13.74 0-9.23-6.47-15.501-16-15.501s-16 6.271-16 15.501c0 9.22 6.47 15.49 16 15.49 2.48 0 6.07-0.78 7.98-1.75z" transform="translate(319.92 446.86)"/>
    <path id="path2403" style="fill:#ffffff" d="m47.98 127.84c10.821-5.43 10.821-22.06 0-27.49-4.452-2.239-11.508-2.239-15.96 0-10.821 5.43-10.821 22.06 0 27.49 1.914 0.97 5.505 1.75 7.98 1.75s6.066-0.78 7.98-1.75z" transform="translate(319.92 446.86)"/>
    <path id="path2401" style="fill:#ffffff" d="m230.92 268.01c3.62-1.98 8.61-5.28 11.08-7.34 8.97-7.47 11.33-7.56 19.13-0.74 4.45 3.9 18.6 12.34 19.3 11.52 0.47-0.55-27.86-162.85-28.43-162.85-0.28 0-6.75 36.11-14.4 80.25-7.64 44.14-14.1 80.81-14.35 81.5-0.71 1.92 0.55 1.54 7.67-2.34z" transform="translate(319.92 446.86)"/>
    <path id="path2399" style="fill:#ffffff" d="m366.53 274.85c-0.33-3.72-2.38-38.93-4.56-78.25-2.18-39.33-4.08-72.69-4.22-74.15-0.14-1.53-11.34 29.55-26.65 74-14.52 42.16-26.64 77.28-26.92 78.06-0.86 2.34 12.98 0.49 22.79-3.05 12.51-4.51 14.34-4.63 18.78-1.22 3.72 2.84 19.01 11.27 20.56 11.33 0.45 0.01 0.54-3.01 0.22-6.72z" transform="translate(319.92 446.86)"/>
    <path id="path2397" style="fill:#ffffff" d="m145.27 277.98c3.98-2 9.38-5.19 12.01-7.11 5.61-4.09 6.87-4.05 19.75 0.59 9.81 3.54 23.65 5.39 22.79 3.05-0.28-0.78-12.4-35.9-26.92-78.06-15.31-44.45-26.51-75.53-26.65-74-0.14 1.46-2.04 34.82-4.22 74.15-2.18 39.32-4.23 74.53-4.56 78.25-0.32 3.71-0.33 6.75-0.01 6.75 0.33 0 3.84-1.63 7.81-3.62z" transform="translate(319.92 446.86)"/>
    <path id="path2394" style="fill:#ffffff" d="m439.94 232.1c4.4-35.15 7.87-64.03 7.71-64.19-0.26-0.25-55.92 113.73-57.44 117.6-0.46 1.19 1.08 1.28 9.87 0.59 17.73-1.38 16.73-1.57 24.47 4.71 3.82 3.1 7.04 5.53 7.16 5.41 0.13-0.13 3.83-28.98 8.23-64.12z" transform="translate(319.92 446.86)"/>
    <path id="path2392" style="fill:#ffffff" d="m86.55 285.77c1.986-1.04 3.986-1.09 9.427-0.25 9.703 1.51 18.373 1.42 17.743-0.17-1.48-3.8-57.121-117.69-57.365-117.44-0.161 0.16 3.287 28.84 7.664 63.74 4.376 34.89 7.962 63.81 7.969 64.26s2.719-1.35 6.027-4 7.149-5.41 8.535-6.14z" transform="translate(319.92 446.86)"/>
    <path id="path2390" style="fill:#ffffff" d="m113.07 346.04c90.16-31.01 187.7-31 277.87 0.01 4.1 1.41 7.77 2.22 8.16 1.8 2.43-2.57 26.85-32.85 26.83-33.25-0.02-0.28-3.23-3.01-7.14-6.08l-7.11-5.57-5.59 0.92c-17.34 2.85-42.85-2.75-61.38-13.48l-6.79-3.93-7.71 2.53c-25.17 8.26-50.44 4.76-72.96-10.12l-5.25-3.47-5.25 3.47c-12.75 8.42-27.44 13.43-42.3 14.41-10.35 0.68-19.36-0.58-30.66-4.29l-7.71-2.53-6.79 3.93c-18.53 10.73-44.04 16.33-61.381 13.48l-5.591-0.92-7.107 5.57c-3.908 3.07-7.018 5.89-6.909 6.28 0.171 0.61 26.908 33.8 27.228 33.8 0.07 0 3.46-1.15 7.54-2.56z" transform="translate(319.92 446.86)"/>
    <path id="path2388" style="fill:#ffffff" d="m151.2 384.76c66.18-21.42 135.42-21.42 201.6 0 8.42 2.72 17.27 5.79 19.67 6.82 3.17 1.36 4.51 1.55 4.87 0.7 0.27-0.65 3.18-7.31 6.45-14.81l5.95-13.62-3.62-1.16c-66.97-21.42-125.78-26.95-191.62-18.02-24.83 3.36-47.34 8.66-76.62 18.02l-3.62 1.16 5.95 13.62c3.27 7.5 6.18 14.16 6.45 14.81 0.36 0.85 1.7 0.66 4.87-0.7 2.4-1.03 11.25-4.1 19.67-6.82z" transform="translate(319.92 446.86)"/>
    <path id="path2386" style="fill:#ffffff" d="m151.5 426.08c19.55-4.83 40.86-8.57 60.5-10.64 16.29-1.71 63.71-1.71 80 0 27.32 2.87 65.82 10.76 85.75 17.56 3.99 1.36 7.25 2.3 7.25 2.07 0-0.22-2.19-5.48-4.87-11.69-5.79-13.43-4.87-12.78-30.35-21.23-17.35-5.76-37.27-10.24-58.78-13.23-17.53-2.43-60.47-2.43-78 0-21.51 2.99-41.43 7.47-58.78 13.23-25.48 8.45-24.56 7.8-30.35 21.23-2.68 6.21-4.87 11.47-4.87 11.69 0 0.23 3.26-0.71 7.25-2.07s15.35-4.47 25.25-6.92z" transform="translate(319.92 446.86)"/>
    <path id="path2384" style="fill:#ffffff" d="m337 463.28c13.86-2.01 22.5-4.02 33.87-7.9l9.36-3.19-6.86-2.33c-11.2-3.79-37.79-10.04-53.87-12.66-24.9-4.06-38.43-5.08-67.5-5.08s-42.6 1.02-67.5 5.08c-16.08 2.62-42.67 8.87-53.87 12.66l-6.86 2.33 9.36 3.21c15.15 5.19 33.46 8.48 52.87 9.5 3.02 0.16 35.88 0.2 73 0.09 54.33-0.15 69.55-0.49 78-1.71z" transform="translate(319.92 446.86)"/>
  </g>
  <metadata>
    <rdf:RDF>
      <cc:Work>
        <dc:format>image/svg+xml</dc:format>
        <dc:type rdf:resource="http://purl.org/dc/dcmitype/StillImage"/>
        <cc:license rdf:resource="http://creativecommons.org/licenses/publicdomain/"/>
        <dc:publisher>
          <cc:Agent rdf:about="http://openclipart.org/">
            <dc:title>Openclipart</dc:title>
          </cc:Agent>
        </dc:publisher>
        <dc:title>Chess tile - Queen 3</dc:title>
        <dc:date>2006-12-26T00:00:00</dc:date>
        <dc:description/>
        <dc:source>https://openclipart.org/detail/18661/-by--18661</dc:source>
        <dc:creator>
          <cc:Agent>
            <dc:title>portablejim</dc:title>
          </cc:Agent>
        </dc:creator>
      </cc:Work>
      <cc:License rdf:about="http://creativecommons.org/licenses/publicdomain/">
        <cc:permits rdf:resource="http://creativecommons.org/ns#Reproduction"/>
        <cc:permits rdf:resource="http://creativecommons.org/ns#Distribution"/>
        <cc:permits rdf:resource="http://creativecommons.org/ns#DerivativeWorks"/>
      </cc:License>
    </rdf:RDF>
  </metadata>
</svg>