<svg width="12" height="16" viewBox="0 0 12 16" fill="none" xmlns="http://www.w3.org/2000/svg">
    <path fill-rule="evenodd" clip-rule="evenodd"
          d="M1 0C0.734784 0 0.48043 0.105357 0.292893 0.292893C0.105357 0.48043 0 0.734784 0 1V15C0 15.2652 0.105357 15.5196 0.292893 15.7071C0.48043 15.8946 0.734784 16 1 16C1.26522 16 1.51957 15.8946 1.70711 15.7071C1.89464 15.5196 2 15.2652 2 15V9.333L11.223 15.482C11.2983 15.5321 11.3858 15.5608 11.4761 15.5652C11.5664 15.5695 11.6563 15.5492 11.736 15.5065C11.8157 15.4639 11.8824 15.4003 11.9289 15.3228C11.9754 15.2452 12 15.1564 12 15.066V9.333V6.666V0.934C12 0.843558 11.9754 0.754822 11.9289 0.677243C11.8824 0.599664 11.8157 0.536148 11.736 0.493459C11.6563 0.45077 11.5664 0.430508 11.4761 0.434829C11.3858 0.439151 11.2983 0.467895 11.223 0.518L2 6.667V1C2 0.734784 1.89464 0.48043 1.70711 0.292893C1.51957 0.105357 1.26522 0 1 0ZM10 12.263V3.737L3.606 8L10 12.263Z"
          fill="#323232"/>
</svg>
