<svg width="12" height="16" viewBox="0 0 12 16" fill="none" xmlns="http://www.w3.org/2000/svg">
    <path fill-rule="evenodd" clip-rule="evenodd"
          d="M11 16C11.2652 16 11.5196 15.8946 11.7071 15.7071C11.8946 15.5196 12 15.2652 12 15L12 1C12 0.734783 11.8946 0.480429 11.7071 0.292892C11.5196 0.105356 11.2652 -6.42368e-08 11 -8.74228e-08C10.7348 -1.10609e-07 10.4804 0.105356 10.2929 0.292892C10.1054 0.480429 10 0.734783 10 1L10 6.667L0.777002 0.517999C0.701707 0.467894 0.614232 0.439151 0.523893 0.434829C0.433554 0.430507 0.343734 0.45077 0.264 0.493459C0.184266 0.536147 0.117605 0.599663 0.0711149 0.677241C0.0246252 0.75482 4.80551e-05 0.843557 1.31711e-06 0.933999L8.15917e-07 6.667L5.8276e-07 9.334L8.16529e-08 15.066C4.68038e-05 15.1564 0.0246239 15.2452 0.0711136 15.3228C0.117603 15.4003 0.184265 15.4639 0.263999 15.5065C0.343733 15.5492 0.433553 15.5695 0.523891 15.5652C0.61423 15.5608 0.701706 15.5321 0.777 15.482L10 9.333L10 15C10 15.2652 10.1054 15.5196 10.2929 15.7071C10.4804 15.8946 10.7348 16 11 16ZM2 3.737L2 12.263L8.394 8L2 3.737Z"
          fill="#323232"/>
</svg>
