<svg width="22" height="17" viewBox="0 0 22 17" fill="none" xmlns="http://www.w3.org/2000/svg">
    <path d="M21 16.3076C21.2652 16.3076 21.5196 16.2023 21.7071 16.0147C21.8946 15.8272 22 15.5728 22 15.3076L22 1.30762C22 1.0424 21.8946 0.788046 21.7071 0.60051C21.5196 0.412973 21.2652 0.307617 21 0.307617C20.7348 0.307617 20.4804 0.412973 20.2929 0.600509C20.1054 0.788046 20 1.0424 20 1.30762L20 6.97462L10.777 0.825616C10.7017 0.775511 10.6142 0.746768 10.5239 0.742446C10.4336 0.738124 10.3437 0.758388 10.264 0.801076C10.1843 0.843764 10.1176 0.90728 10.0711 0.984858C10.0246 1.06244 10 1.15117 10 1.24162L10 6.97462L0.777002 0.825615C0.701707 0.77551 0.614232 0.746767 0.523893 0.742445C0.433553 0.738123 0.343734 0.758387 0.264001 0.801075C0.184268 0.843763 0.117605 0.907279 0.0711149 0.984858C0.0246252 1.06244 4.71014e-05 1.15117 1.31711e-06 1.24162L8.16529e-08 15.3736C4.58501e-05 15.4641 0.0246239 15.5528 0.0711136 15.6304C0.117603 15.708 0.184267 15.7715 0.264 15.8142C0.343733 15.8568 0.433552 15.8771 0.523891 15.8728C0.614231 15.8685 0.701706 15.8397 0.777 15.7896L10 9.64162L10 15.3736C10 15.4641 10.0246 15.5528 10.0711 15.6304C10.1176 15.708 10.1843 15.7715 10.264 15.8142C10.3437 15.8568 10.4336 15.8771 10.5239 15.8728C10.6142 15.8685 10.7017 15.8397 10.777 15.7896L20 9.64062L20 15.3076C20 15.5728 20.1054 15.8272 20.2929 16.0147C20.4804 16.2023 20.7348 16.3076 21 16.3076ZM12 12.5706L12 4.04462L18.394 8.30762L12 12.5706ZM2 12.5706L2 4.04461L8.394 8.30762L2 12.5706Z"
          fill="#323232"/>
</svg>
